<svg width="345" height="142" viewBox="0 0 345 142" fill="none" xmlns="http://www.w3.org/2000/svg">
<path d="M148.896 66.1484C154.449 66.1484 158.629 67.7964 161.437 71.0918C164.244 74.3871 165.647 79.6351 165.647 86.8359V96.8145H153.473V87.4775C153.473 83.938 153.168 81.5267 152.558 80.2451C151.947 78.9638 150.726 78.3232 148.896 78.3232C147.065 78.3233 145.845 78.9639 145.234 80.2451C144.624 81.5267 144.319 83.938 144.319 87.4775V119.882C144.319 123.421 144.624 125.833 145.234 127.114C145.845 128.396 147.065 129.036 148.896 129.036C150.726 129.036 151.947 128.396 152.558 127.114C153.168 125.833 153.473 123.421 153.473 119.882V110.545H165.647V120.523C165.647 127.724 164.244 132.972 161.437 136.268C158.629 139.563 154.449 141.211 148.896 141.211C143.342 141.211 139.163 139.563 136.355 136.268C133.548 132.972 132.145 127.724 132.145 120.523V86.8359C132.145 79.6351 133.548 74.3871 136.355 71.0918C139.163 67.7965 143.342 66.1485 148.896 66.1484ZM214.316 0.210938C217.807 4.44933 223.59 20.2552 218.804 49.5723C217.244 59.1255 228.934 65.6323 228.934 48.8633L227.683 29.0908C232.918 34.8247 241.988 44.1543 241.988 49.5723C241.988 58.1243 247.972 61.5386 241.988 69.0176C237.202 75.0004 240.134 81.5506 242.449 83.4033C246.204 86.4068 261.338 90.1638 252.962 65.6328C265.754 85.5056 278.039 118.517 239.045 140.936C244.382 135.823 249.34 129.591 251.486 122.767C255.132 111.374 254.481 97.5301 243.186 94.4971C236.9 92.4811 225.393 100.358 220.445 104.185C215.215 100.25 203.568 92.4669 197.276 94.4971C185.315 98.3505 185.753 111.374 189.402 122.767C191.61 129.637 196.547 135.862 201.85 140.954C178.932 128.75 156.495 100.818 185.896 51.8154C184.401 59.2942 183.652 72.8899 183.652 75.748C183.652 79.8988 187.925 92.0949 197.647 74.8936C201.891 67.3849 198.611 49.7212 201.603 41.3447C205.342 30.8746 215.064 27.8825 214.316 0.210938ZM13.2676 67.0645C18.6379 67.0645 22.8183 67.7356 25.8086 69.0781C28.7989 70.3597 30.9045 72.4653 32.125 75.3945C33.3454 78.2627 33.956 82.2291 33.9561 87.2939V95.3496C33.9561 100.354 33.3456 104.321 32.125 107.25C30.9045 110.118 28.7989 112.224 25.8086 113.566C22.8794 114.909 18.7295 115.58 13.3594 115.58H12.4443V140.296H0.269531V67.0645H13.2676ZM48.5137 128.121H61.5127V140.296H36.3389V67.0645H48.5137V128.121ZM99.6885 140.296H87.5137L86.2314 127.114H77.3525L76.0703 140.296H63.8965L73.416 67.0645H90.168L99.6885 140.296ZM112.807 99.9268L119.397 67.0645H132.396L118.94 114.665V140.296H106.674V114.665L93.2178 67.0645H106.216L112.807 99.9268ZM284.962 67.0645C290.271 67.0645 294.421 67.7356 297.411 69.0781C300.401 70.3597 302.507 72.4345 303.728 75.3027C305.009 78.171 305.65 82.0765 305.65 87.0195V92.4209C305.65 96.5706 305.04 100.019 303.819 102.765C302.66 105.511 300.859 107.646 298.418 109.172C300.859 110.087 302.66 111.583 303.819 113.658C305.04 115.733 305.65 118.601 305.65 122.263V133.797C305.65 135.505 305.711 136.909 305.833 138.007C305.955 139.044 306.23 139.808 306.657 140.296H294.482C294.055 139.808 293.78 139.044 293.658 138.007C293.536 136.909 293.476 135.505 293.476 133.797V119.974C293.476 117.838 293.139 116.251 292.468 115.214C291.857 114.116 290.973 113.414 289.813 113.108C288.654 112.742 287.098 112.56 285.146 112.56H284.138V140.296H271.964V67.0645H284.962ZM344.299 140.296H332.124L330.843 127.114H321.964L320.682 140.296H308.507L318.027 67.0645H334.779L344.299 140.296ZM78.542 114.848H85.1328L81.8379 80.3369L78.542 114.848ZM323.153 114.848H329.744L326.449 80.3369L323.153 114.848ZM12.4443 103.405H13.3594C15.6783 103.405 17.4176 103.192 18.5771 102.765C19.7366 102.337 20.5607 101.574 21.0488 100.476C21.537 99.3161 21.7812 97.6074 21.7812 95.3496V87.2939C21.7812 85.0362 21.537 83.3582 21.0488 82.2598C20.5607 81.1002 19.7366 80.3071 18.5771 79.8799C17.4176 79.4526 15.6784 79.2383 13.3594 79.2383H12.4443V103.405ZM284.138 100.385H285.054C288.349 100.385 290.577 99.8348 291.736 98.7363C292.896 97.5768 293.476 95.4716 293.476 92.4209V87.0195C293.476 84.8837 293.231 83.2664 292.743 82.168C292.255 81.0694 291.4 80.307 290.18 79.8799C289.02 79.4526 287.312 79.2383 285.054 79.2383H284.138V100.385Z" fill="white"/>
</svg>
